HIERARCHY
ROOT Hips
{
  OFFSET -10.0563 7.73376 -472.55
  CHANNELS 6 Xposition Yposition Zposition Zrotation Xrotation Yrotation
  JOINT Spine
  {
    OFFSET 0 0 0
    CHANNELS 3 Zrotation Xrotation Yrotation
    JOINT Spine1
    {
      OFFSET 19 0 0
      CHANNELS 3 Zrotation Xrotation Yrotation
      JOINT Neck
      {
        OFFSET 22.5 0.6 0
        CHANNELS 3 Zrotation Xrotation Yrotation
        JOINT Head
        {
          OFFSET 14 0.0308777 0
          CHANNELS 3 Zrotation Xrotation Yrotation
          End Site
          {
            OFFSET 17 0 0
          }
        }
      }
      JOINT LeftShoulder
      {
        OFFSET 19.8 3.7 4.3
        CHANNELS 3 Zrotation Xrotation Yrotation
        JOINT LeftArm
        {
          OFFSET 8 0 0
          CHANNELS 3 Zrotation Xrotation Yrotation
          JOINT LeftForeArm
          {
            OFFSET 15.2 0 0
            CHANNELS 3 Zrotation Xrotation Yrotation
            JOINT LeftHand
            {
              OFFSET 17.8 0 0
              CHANNELS 3 Zrotation Xrotation Yrotation
              End Site
              {
                OFFSET 7.2 0 0
              }
            }
          }
        }
      }
      JOINT RightShoulder
      {
        OFFSET 19.8 3.7 -4.3
        CHANNELS 3 Zrotation Xrotation Yrotation
        JOINT RightArm
        {
          OFFSET 8 0 0.151654
          CHANNELS 3 Zrotation Xrotation Yrotation
          JOINT RightForeArm
          {
            OFFSET 15.2 0 0
            CHANNELS 3 Zrotation Xrotation Yrotation
            JOINT RightHand
            {
              OFFSET 17.8 0 0
              CHANNELS 3 Zrotation Xrotation Yrotation
              End Site
              {
                OFFSET 7.2 0 0
              }
            }
          }
        }
      }
    }
  }
  JOINT LeftUpLeg
  {
    OFFSET 5.98425 -7.666 4.78879
    CHANNELS 3 Zrotation Xrotation Yrotation
    JOINT LeftLeg
    {
      OFFSET 16 0 0
      CHANNELS 3 Zrotation Xrotation Yrotation
      JOINT LeftFoot
      {
        OFFSET 18 0 0
        CHANNELS 3 Zrotation Xrotation Yrotation
        End Site
        {
          OFFSET 0 -10.8 0
        }
      }
    }
  }
  JOINT RightUpLeg
  {
    OFFSET 5.98425 -7.66598 -4.78879
    CHANNELS 3 Zrotation Xrotation Yrotation
    JOINT RightLeg
    {
      OFFSET 16 0 0
      CHANNELS 3 Zrotation Xrotation Yrotation
      JOINT RightFoot
      {
        OFFSET 18 0 0
        CHANNELS 3 Zrotation Xrotation Yrotation
        End Site
        {
          OFFSET 0 -10.8 0
        }
      }
    }
  }
  JOINT Tail
  {
    OFFSET 6.83696 -0.722574 0
    CHANNELS 3 Zrotation Xrotation Yrotation
    JOINT Tail1
    {
      OFFSET 12 0 0
      CHANNELS 3 Zrotation Xrotation Yrotation
      End Site
      {
        OFFSET 12 0 0
      }
    }
  }
}
MOTION
Frames:	19
Frame Time:	0.0166667
40.0342 46.8414 -197.565 7.3865 0.185882 -179.854 -156.824 5.10831 13.288 -20.7813 2.28865 -3.25265 -14.0027 -7.10585 3.4041 -68.9391 82.6277 89.9233 -107.314 -28.0698 -148.794 113.976 -39.182 -130.774 -54.9434 19.7802 -12.6045 -18.9605 3.10403 -12.9794 72.7201 -34.1814 45.4297 43.6642 -21.009 -42.9464 -85.2299 -7.04784 -7.84231 -1.8353 1.65763 -1.64455 -109.272 -4.74603 -10.8119 77.0219 20.0449 5.20767 43.1607 -4.62023 -8.08542 -138.946 -2.49972 3.11936 71.1788 -8.13833 -5.02106 51.138 0.885413 -1.26518 150.208 -27.0966 170.85 164.985 32.4188 -169.663 
41.3204 46.9192 -197.281 8.17718 0.630539 179.024 -156.566 4.98163 14.0573 -20.0718 2.7661 -5.6498 -13.7906 -7.57574 4.73254 -65.247 83.0025 85.6676 -106.67 -27.0981 -149.423 115.678 -39.5522 -132.363 -52.3938 19.943 -11.9856 -18.4577 3.20255 -13.7552 72.7626 -34.5986 46.3907 42.4773 -17.4444 -47.2601 -79.7585 -12.1845 -5.05767 -4.0655 1.85575 -2.80821 -105.962 -5.41179 -10.0355 75.964 19.459 5.04761 44.3935 -4.59386 -7.9937 -138.696 -1.2878 4.35341 67.5393 -8.75242 -6.31738 55.1932 1.35034 -1.04443 150.184 -29.0441 168.693 164.58 34.7901 -168.712 
42.6495 46.9262 -196.935 8.30121 0.951875 177.175 -157.176 4.50493 13.5332 -18.9432 3.04803 -7.23437 -13.9391 -8.02275 5.72256 -64.2106 82.9955 84.463 -105.958 -26.1363 -149.825 117.635 -40.3902 -134.076 -50.2546 19.5917 -10.6091 -17.3937 3.33571 -15.0922 72.8451 -34.9522 47.3274 44.0272 -12.9087 -51.1068 -73.4862 -14.175 -1.85034 -3.4179 1.79959 -4.63263 -103.387 -6.19502 -9.23926 74.705 19.4079 5.055 46.3054 -4.67815 -7.9941 -138.41 0.826101 4.86005 65.2997 -7.26029 -7.58471 57.9257 1.50547 -1.0506 149.866 -28.7277 166.721 164.693 35.0521 -168.366 
43.9648 46.9372 -196.555 8.61114 1.60832 175.078 -157.677 3.87134 12.5252 -17.7723 3.06348 -8.26874 -14.2802 -8.38992 6.28017 -62.8503 83.0337 82.8044 -105.33 -25.3281 -150.078 120.248 -41.3188 -135.204 -47.9143 18.8182 -8.92782 -15.7642 3.19432 -15.7578 73.0254 -35.107 48.1581 43.2528 -14.069 -52.4205 -69.5454 -13.7895 2.55095 -1.24964 0.862781 -2.439 -100.71 -7.2488 -7.8231 73.2875 18.4016 4.96342 48.7361 -4.62823 -7.79066 -136.663 3.03159 5.24337 63.3114 -5.63944 -8.60979 59.7428 1.59072 -1.03921 150.291 -27.0605 165.109 165.117 33.451 -168.451 
45.2804 46.9662 -196.123 8.7465 2.23268 173.301 -158.339 3.33721 11.5391 -16.4694 2.98142 -8.81879 -15.0703 -8.65815 6.6181 -59.6628 83.2701 79.6157 -104.999 -24.9876 -149.941 123.503 -42.6745 -135.397 -45.2219 18.5122 -7.56623 -14.5276 2.95399 -15.8597 73.1716 -35.2333 48.8309 41.1507 -15.2081 -51.8678 -64.1661 -17.9764 4.38728 -5.07242 1.30084 -3.14536 -98.621 -7.96737 -6.57865 72.0459 17.7575 4.78945 51.2352 -4.56279 -7.563 -133.929 4.08514 4.2102 62.5967 -3.09458 -8.20341 57.7991 1.33436 -1.15954 152.003 -22.7856 165.117 165.835 28.5129 -169.257 
46.6577 46.9329 -195.667 8.5641 3.03227 171.836 -159.252 2.8723 11.2199 -15.3088 2.92735 -9.8033 -15.9302 -8.58829 7.13838 -50.2648 84.1995 70.0189 -104.798 -24.8325 -149.68 126.586 -44.147 -134.903 -42.4493 18.2136 -7.08422 -13.4379 2.58614 -14.9565 73.3707 -35.1441 49.2539 37.3614 -19.9335 -51.7448 -60.7373 -16.6446 6.74349 -4.26237 0.498809 -0.0270287 -97.2239 -8.19621 -5.01234 71.0556 17.4968 4.43638 54.294 -4.48245 -7.32346 -132.471 3.03286 2.44636 64.4758 -1.44682 -6.42523 53.8723 0.912652 -1.45392 153.928 -16.943 165.874 166.703 21.6246 -170.142 
48.1331 46.7573 -195.246 8.19425 3.71368 170.095 -160.32 2.3293 10.5888 -14.1312 2.8133 -10.6143 -16.8916 -8.48081 7.1504 -49.2635 84.4022 69.1681 -104.823 -25.0228 -149.154 129.001 -46.1393 -134.433 -40.5528 17.819 -6.42303 -12.2824 2.0498 -13.3638 73.3438 -35.3524 49.5657 36.1762 -25.5074 -50.3792 -62.9219 -18.8965 4.50796 -8.95592 0.250182 3.20191 -96.4785 -8.38523 -3.61284 71.2457 17.7524 4.16012 55.617 -4.49022 -7.27641 -131.93 2.1466 2.02388 66.4537 -2.23935 -5.61676 51.4373 0.81904 -1.40823 155.847 -8.82498 166.776 167.245 12.4753 -171.373 
49.6339 46.5312 -194.905 7.42458 4.49909 168.225 -161.613 1.71037 9.99169 -13.3718 2.67133 -11.5108 -17.6355 -8.40969 7.29924 -41.526 84.8612 61.4776 -104.889 -25.3263 -148.43 130.849 -48.0854 -133.837 -39.034 17.16 -5.74821 -10.8605 1.43397 -11.28 73.4555 -35.3128 49.8238 36.9193 -27.3122 -51.427 -64.0116 -20.602 4.31904 -10.6544 0.222925 3.59565 -97.1793 -8.84831 -2.08174 73.2567 17.8364 3.67248 56.4791 -4.42836 -7.15746 -132.423 1.31437 2.61633 69.5076 -3.71271 -5.39823 48.9319 0.803604 -1.21313 157.208 0.504559 167.444 167.475 2.21432 -172.529 
51.1875 46.4502 -194.584 6.69272 4.42769 166.493 -161.584 1.71275 9.04977 -14.1622 3.10753 -11.7997 -18.0606 -8.26369 7.0285 -31.6504 85.1394 52.5264 -104.975 -25.5209 -148.136 130.087 -50.0624 -134.777 -39.5846 15.4578 -4.73249 -8.495 0.659075 -8.23431 73.4014 -35.1148 49.29 39.2744 -30.2357 -52.111 -66.5058 -19.4382 4.94459 -9.0325 -0.328346 5.50008 -98.9548 -9.37793 -2.14697 76.3077 16.8807 3.30771 56.7059 -4.24454 -6.93994 -132.24 0.876951 2.33436 71.6739 -5.33321 -5.09849 47.4817 0.89341 -0.982424 158.648 12.2487 168.581 167.314 -9.88541 -174.317 
52.7822 46.4906 -194.293 5.67709 3.91274 164.716 -160.998 1.83839 7.86245 -16.1138 3.77739 -11.9115 -17.9016 -8.02106 6.81744 -21.8739 85.3503 43.5471 -105.218 -25.945 -147.725 126.836 -52.0199 -137.782 -43.1183 11.0251 -2.38175 -4.8679 0.0409153 -4.62539 73.3947 -34.658 48.3957 41.6275 -33.1556 -52.4247 -68.1359 -21.3673 5.01806 -10.5579 -0.43789 6.18479 -101.556 -9.69158 -2.80055 78.673 15.1173 3.0057 57.4261 -3.94502 -6.57941 -131.694 0.885158 1.76102 72.7903 -6.73728 -4.92712 47.0787 1.14422 -0.699143 159.72 25.0565 169.591 166.702 -22.6038 -176.591 
54.3764 46.5084 -194.064 4.17468 3.13908 162.686 -160.716 1.954 6.31839 -18.1696 4.54387 -11.8866 -17.8566 -7.89931 6.65505 -10.3615 85.3352 33.3581 -105.908 -27.0274 -146.98 121.189 -52.2083 -139.999 -49.7008 -0.593158 -1.503 6.17462 0.609497 -1.54045 73.472 -34.0057 47.3466 44.2102 -35.601 -52.5898 -69.9016 -21.7452 4.77178 -11.0805 -0.638617 7.11814 -105.507 -9.40119 -3.02869 82.2043 12.7078 2.25487 54.8885 -3.54776 -6.16059 -131.252 1.30454 1.233 73.2961 -8.19608 -4.99256 47.049 1.4754 -0.347961 160.736 39.4787 170.279 165.217 -36.6367 -179.911 
56.0118 46.4831 -193.843 2.5903 2.46846 160.853 -160.525 2.16516 5.22337 -20.2531 5.40025 -12.1197 -17.9116 -7.51941 6.06837 -3.59794 85.3883 28.0256 -106.49 -28.2631 -145.508 119.651 -51.9365 -140.131 -56.3064 -20.4872 1.39872 22.8632 2.22606 -6.35309 73.6577 -33.1922 46.263 46.3053 -38.5927 -52.0248 -71.5466 -22.6441 4.69464 -11.3566 -0.791885 7.93276 -109.972 -8.80824 -3.67062 86.3449 12.4652 1.60078 49.6322 -3.33865 -5.94791 -131.005 1.60911 0.541882 73.8618 -9.22448 -4.9503 47.2818 1.76328 -0.0892811 161.603 54.1849 170.865 161.704 -50.9912 174.694 
57.653 46.3977 -193.606 0.923318 1.70049 158.991 -160.744 2.35157 3.74856 -21.9385 6.14583 -11.9063 -17.8353 -7.25558 5.90218 11.8774 85.0359 13.8224 -107.092 -29.5621 -144.064 122.338 -53.3888 -138.222 -60.9893 -33.302 2.83029 34.9019 2.03696 -11.6503 73.9668 -32.2441 45.2306 47.8938 -41.7313 -50.8953 -72.7829 -23.1599 4.4473 -11.5332 -0.916119 8.71026 -115.028 -7.79901 -4.78256 90.9003 12.2401 1.02934 44.2483 -3.1499 -5.76787 -130.779 1.72611 -0.723456 74.5176 -9.8475 -4.60303 47.3679 1.87331 0.00869522 162.659 68.6425 170.912 153.391 -64.4909 164.307 
59.2229 46.3366 -193.385 0.0176543 1.20481 157.396 -160.724 2.31762 2.52201 -23.1693 6.4417 -11.4983 -17.5108 -7.17728 5.91833 22.8721 84.4187 2.966 -107.598 -30.7464 -142.721 127.065 -54.5901 -135.769 -64.697 -48.3212 4.7908 44.2808 -0.573241 -23.0024 74.1325 -31.444 43.9991 48.8691 -44.8677 -49.4738 -73.5205 -23.1834 4.30611 -11.4566 -1.17494 10.0145 -119.699 -6.64188 -5.47375 94.4588 11.3373 0.524569 39.9361 -2.91501 -5.47657 -129.653 1.62612 -1.00682 75.068 -10.9194 -4.55929 46.7992 2.00549 0.199891 164.772 83.4393 170.556 125.156 -76.6817 133.889 
60.6898 46.2969 -193.167 -0.676731 0.692007 155.554 -161.317 1.96723 0.375292 -23.4539 6.19689 -10.2185 -17.4601 -6.70829 5.59868 27.5987 84.4466 -1.26077 -108.4 -32.1459 -141.871 130.548 -53.9766 -134.232 -67.4988 -58.9555 8.06316 50.6444 -3.46299 -30.0509 74.473 -30.4267 42.781 49.3201 -46.9675 -48.1422 -73.3313 -22.8477 3.97299 -11.6843 -1.21806 10.4142 -124.247 -5.39704 -6.67171 96.5254 11.8704 0.38262 36.7039 -2.78907 -5.28108 -128.323 1.08184 -1.61471 75.4937 -11.9763 -4.164 46.2766 2.1286 0.37613 -17.7454 82.3298 -5.21652 58.4822 -77.1123 64.9325 
62.0286 46.2642 -192.927 -0.816057 0.16168 153.674 -161.959 1.38749 -2.04884 -23.0369 5.61072 -8.73912 -17.6677 -6.1053 5.50407 34.1214 84.4579 -7.12371 -109.496 -33.9296 -141.093 132.991 -50.9057 -132.259 -65.0533 -68.4192 15.5434 48.9259 -5.50102 -39.2841 74.8407 -29.3881 41.5199 49.1535 -48.3913 -46.9973 -72.0422 -22.8448 3.82086 -12.8305 -1.52327 11.4934 -128.582 -4.34662 -8.61791 97.5111 11.9707 0.61233 34.7242 -2.61989 -5.00226 -126.744 0.152188 -2.63595 76.2715 -12.2222 -3.3682 45.8404 2.09018 0.362657 -14.4161 68.3762 -6.42407 28.9643 -66.1227 32.971 
63.2666 46.2594 -192.702 -0.357385 -0.335451 152.019 -161.917 0.537387 -4.12225 -22.9694 4.76502 -7.45662 -17.8048 -5.31959 5.90788 45.1844 84.011 -17.3172 -110.536 -35.7104 -140.237 134.421 -46.5804 -130.677 -54.1319 -74.9301 30.6282 41.4273 -4.91398 -47.9601 75.3639 -28.1195 40.1197 48.9909 -48.7938 -47.0676 -70.3287 -22.9336 4.36097 -13.4469 -1.51951 11.1732 -132.036 -3.18543 -10.124 97.044 12.1494 0.951245 33.657 -2.50133 -4.79982 -124.884 -0.646454 -2.56943 77.3092 -13.2747 -3.08295 45.6309 2.2649 0.553431 -11.1504 55.1146 -7.19905 20.0441 -53.3625 21.6678 
64.4003 46.2384 -192.487 0.575808 -0.890582 150.38 -161.266 -0.677352 -6.62738 -23.3665 3.43352 -5.46051 -17.769 -4.16336 5.81313 52.6708 84.5573 -24.0648 -111.264 -37.2755 -139.065 134.529 -41.3376 -128.913 -52.271 -74.9167 35.6705 36.0265 -3.13825 -49.5618 75.8725 -26.6733 38.0155 50.8048 -48.5977 -45.9209 -69.4415 -23.3211 4.79748 -14.3472 -1.28634 10.0531 -134.731 -1.9557 -11.2577 95.6465 11.4829 1.34255 32.9819 -2.31188 -4.49973 -122.477 -1.83972 -2.67223 78.0323 -14.2247 -2.60058 45.2167 2.35642 0.697006 -7.82267 43.4254 -8.03448 17.0775 -41.5721 16.0694 
65.4816 46.236 -192.28 1.7375 -1.42583 149.073 -160.643 -1.84745 -9.55521 -23.554 1.81967 -2.37413 -17.6386 -2.89889 5.3775 62.7755 84.5714 -33.7028 -111.906 -38.3222 -138.713 134.039 -34.998 -127.239 -60.7242 -69.9819 28.7735 32.8255 -1.24079 -44.6254 76.6812 -24.9743 36.0772 51.4622 -48.7471 -43.8481 -68.279 -23.2354 4.83332 -14.659 -1.02233 8.90263 -136.676 -0.747164 -12.3953 92.7091 12.2718 2.04436 33.8703 -2.28214 -4.46242 -120.25 -3.27622 -3.08915 79.5761 -13.5752 -1.87146 44.9588 2.22407 0.522493 -4.2263 33.0182 -9.61294 16.0302 -30.9064 12.2466 
